<svg width="364" height="394" viewBox="0 0 364 394" fill="none" xmlns="http://www.w3.org/2000/svg">
<path d="M77.936 1.048C77.552 5.272 77.264 9.352 77.072 13.288C76.976 17.224 76.928 20.248 76.928 22.36C76.928 24.28 76.976 26.104 77.072 27.832C77.168 29.56 77.264 31 77.36 32.152H74.048C73.088 25.144 71.6 19.624 69.584 15.592C67.568 11.464 64.928 8.58399 61.664 6.95199C58.496 5.22399 54.752 4.35999 50.432 4.35999H44.528C41.744 4.35999 39.632 4.59999 38.192 5.08C36.752 5.56 35.792 6.52 35.312 7.96C34.832 9.39999 34.592 11.608 34.592 14.584V89.464C34.592 92.44 34.832 94.648 35.312 96.088C35.792 97.528 36.752 98.488 38.192 98.968C39.632 99.448 41.744 99.688 44.528 99.688H51.584C55.904 99.688 59.696 98.776 62.96 96.952C66.32 95.032 69.152 91.816 71.456 87.304C73.856 82.792 75.68 76.696 76.928 69.016H80.24C79.952 72.088 79.808 76.12 79.808 81.112C79.808 83.32 79.856 86.44 79.952 90.472C80.048 94.504 80.336 98.68 80.816 103C75.92 102.808 70.4 102.712 64.256 102.712C58.112 102.616 52.64 102.568 47.84 102.568C45.44 102.568 42.368 102.568 38.624 102.568C34.88 102.568 30.848 102.616 26.528 102.712C22.208 102.712 17.84 102.76 13.424 102.856C9.008 102.856 4.832 102.904 0.896 103V100.12C3.968 99.928 6.272 99.544 7.808 98.968C9.344 98.392 10.352 97.24 10.832 95.512C11.408 93.784 11.696 91.192 11.696 87.736V16.312C11.696 12.76 11.408 10.168 10.832 8.536C10.352 6.808 9.296 5.656 7.664 5.08C6.128 4.408 3.872 4.024 0.896 3.928V1.048C4.832 1.144 9.008 1.24 13.424 1.336C17.84 1.336 22.208 1.384 26.528 1.47999C30.848 1.47999 34.88 1.47999 38.624 1.47999C42.368 1.47999 45.44 1.47999 47.84 1.47999C52.256 1.47999 57.248 1.47999 62.816 1.47999C68.48 1.384 73.52 1.24 77.936 1.048ZM55.472 50.296C55.472 50.296 55.472 50.776 55.472 51.736C55.472 52.696 55.472 53.176 55.472 53.176H30.272C30.272 53.176 30.272 52.696 30.272 51.736C30.272 50.776 30.272 50.296 30.272 50.296H55.472ZM59.648 31.288C59.264 36.76 59.072 40.936 59.072 43.816C59.168 46.696 59.216 49.336 59.216 51.736C59.216 54.136 59.264 56.776 59.36 59.656C59.456 62.536 59.696 66.712 60.08 72.184H56.768C56.288 68.824 55.376 65.704 54.032 62.824C52.784 59.944 50.96 57.64 48.56 55.912C46.16 54.088 43.04 53.176 39.2 53.176V50.296C42.08 50.296 44.528 49.72 46.544 48.568C48.56 47.32 50.192 45.736 51.44 43.816C52.784 41.8 53.84 39.688 54.608 37.48C55.376 35.272 55.952 33.208 56.336 31.288H59.648ZM130.322 0.903993V3.928C126.002 3.928 123.218 4.36 121.97 5.224C120.818 5.992 120.914 7.384 122.258 9.39999L179.282 92.776C181.202 95.464 182.738 97.288 183.89 98.248C185.042 99.208 186.578 99.784 188.498 99.976V103C186.578 102.904 183.794 102.808 180.146 102.712C176.498 102.52 172.706 102.424 168.77 102.424C164.45 102.424 160.034 102.52 155.522 102.712C151.106 102.808 147.794 102.904 145.586 103V99.976C150.002 99.976 152.834 99.688 154.082 99.112C155.426 98.44 155.426 97.096 154.082 95.08L96.9136 11.128C95.0896 8.34399 93.6016 6.47199 92.4496 5.51199C91.2976 4.55199 89.7136 4.024 87.6976 3.928V0.903993C89.7136 0.999997 92.6416 1.144 96.4816 1.336C100.418 1.43199 104.354 1.47999 108.29 1.47999C112.61 1.47999 116.738 1.43199 120.674 1.336C124.706 1.144 127.922 0.999997 130.322 0.903993ZM131.618 51.736C131.618 51.736 131.714 52.072 131.906 52.744C132.098 53.32 132.29 53.944 132.482 54.616C132.674 55.192 132.77 55.48 132.77 55.48L118.37 75.208C114.53 80.392 112.37 84.808 111.89 88.456C111.41 92.008 112.226 94.792 114.338 96.808C116.546 98.728 119.762 99.832 123.986 100.12V103C122.642 102.904 120.914 102.856 118.802 102.856C116.786 102.76 114.626 102.712 112.322 102.712C110.114 102.616 108.002 102.568 105.986 102.568C104.066 102.568 102.482 102.568 101.234 102.568C98.5456 102.568 96.0496 102.616 93.7456 102.712C91.4416 102.712 89.5216 102.808 87.9856 103V100.12C91.3456 98.968 94.7536 96.952 98.2096 94.072C101.666 91.096 105.218 87.256 108.866 82.552L131.618 51.736ZM182.018 1.048V3.928C178.85 4.792 175.682 6.616 172.514 9.39999C169.442 12.184 166.562 15.4 163.874 19.048L140.546 50.152C140.546 50.152 140.354 49.528 139.97 48.28C139.682 47.032 139.538 46.408 139.538 46.408L154.37 26.392C158.018 21.784 160.178 17.848 160.85 14.584C161.618 11.32 161.09 8.776 159.266 6.95199C157.442 5.12799 154.562 4.11999 150.626 3.928V1.048C152.45 1.144 154.466 1.24 156.674 1.336C158.882 1.336 161.042 1.384 163.154 1.47999C165.362 1.47999 167.234 1.47999 168.77 1.47999C171.554 1.47999 174.098 1.43199 176.402 1.336C178.706 1.24 180.578 1.144 182.018 1.048ZM191.724 1.048C194.124 1.144 197.34 1.24 201.372 1.336C205.5 1.43199 209.58 1.47999 213.612 1.47999C218.22 1.47999 222.684 1.43199 227.004 1.336C231.324 1.24 234.396 1.192 236.22 1.192C249.564 1.192 259.548 3.832 266.172 9.112C272.796 14.392 276.108 21.208 276.108 29.56C276.108 33.016 275.436 36.664 274.092 40.504C272.748 44.248 270.444 47.752 267.18 51.016C264.012 54.184 259.644 56.776 254.076 58.792C248.508 60.808 241.5 61.816 233.052 61.816H218.364V58.936H231.612C237.276 58.936 241.548 57.64 244.428 55.048C247.404 52.456 249.42 49.048 250.476 44.824C251.628 40.6 252.204 36.04 252.204 31.144C252.204 22.024 250.86 15.208 248.172 10.696C245.484 6.184 240.876 3.928 234.348 3.928C230.604 3.928 228.156 4.744 227.004 6.376C225.948 8.008 225.42 11.32 225.42 16.312V86.872C225.42 90.616 225.804 93.4 226.572 95.224C227.34 97.048 228.828 98.248 231.036 98.824C233.244 99.4 236.508 99.736 240.828 99.832V103C237.852 102.904 234.012 102.808 229.308 102.712C224.604 102.616 219.66 102.568 214.476 102.568C210.348 102.568 206.316 102.616 202.38 102.712C198.444 102.808 194.892 102.904 191.724 103V100.12C194.796 99.928 197.1 99.544 198.636 98.968C200.172 98.392 201.18 97.24 201.66 95.512C202.236 93.784 202.524 91.192 202.524 87.736V16.312C202.524 12.76 202.236 10.168 201.66 8.536C201.18 6.808 200.124 5.656 198.492 5.08C196.956 4.408 194.7 4.024 191.724 3.928V1.048ZM360.311 1.048C359.927 5.272 359.639 9.352 359.447 13.288C359.351 17.224 359.303 20.248 359.303 22.36C359.303 24.28 359.351 26.104 359.447 27.832C359.543 29.56 359.639 31 359.735 32.152H356.423C355.463 25.144 353.975 19.624 351.959 15.592C349.943 11.464 347.303 8.58399 344.039 6.95199C340.871 5.22399 337.127 4.35999 332.807 4.35999H326.903C324.119 4.35999 322.007 4.59999 320.567 5.08C319.127 5.56 318.167 6.52 317.687 7.96C317.207 9.39999 316.967 11.608 316.967 14.584V89.464C316.967 92.44 317.207 94.648 317.687 96.088C318.167 97.528 319.127 98.488 320.567 98.968C322.007 99.448 324.119 99.688 326.903 99.688H333.959C338.279 99.688 342.071 98.776 345.335 96.952C348.695 95.032 351.527 91.816 353.831 87.304C356.231 82.792 358.055 76.696 359.303 69.016H362.615C362.327 72.088 362.183 76.12 362.183 81.112C362.183 83.32 362.231 86.44 362.327 90.472C362.423 94.504 362.711 98.68 363.191 103C358.295 102.808 352.775 102.712 346.631 102.712C340.487 102.616 335.015 102.568 330.215 102.568C327.815 102.568 324.743 102.568 320.999 102.568C317.255 102.568 313.223 102.616 308.903 102.712C304.583 102.712 300.215 102.76 295.799 102.856C291.383 102.856 287.207 102.904 283.271 103V100.12C286.343 99.928 288.647 99.544 290.183 98.968C291.719 98.392 292.727 97.24 293.207 95.512C293.783 93.784 294.071 91.192 294.071 87.736V16.312C294.071 12.76 293.783 10.168 293.207 8.536C292.727 6.808 291.671 5.656 290.039 5.08C288.503 4.408 286.247 4.024 283.271 3.928V1.048C287.207 1.144 291.383 1.24 295.799 1.336C300.215 1.336 304.583 1.384 308.903 1.47999C313.223 1.47999 317.255 1.47999 320.999 1.47999C324.743 1.47999 327.815 1.47999 330.215 1.47999C334.631 1.47999 339.623 1.47999 345.191 1.47999C350.855 1.384 355.895 1.24 360.311 1.048ZM337.847 50.296C337.847 50.296 337.847 50.776 337.847 51.736C337.847 52.696 337.847 53.176 337.847 53.176H312.647C312.647 53.176 312.647 52.696 312.647 51.736C312.647 50.776 312.647 50.296 312.647 50.296H337.847ZM342.023 31.288C341.639 36.76 341.447 40.936 341.447 43.816C341.543 46.696 341.591 49.336 341.591 51.736C341.591 54.136 341.639 56.776 341.735 59.656C341.831 62.536 342.071 66.712 342.455 72.184H339.143C338.663 68.824 337.751 65.704 336.407 62.824C335.159 59.944 333.335 57.64 330.935 55.912C328.535 54.088 325.415 53.176 321.575 53.176V50.296C324.455 50.296 326.903 49.72 328.919 48.568C330.935 47.32 332.567 45.736 333.815 43.816C335.159 41.8 336.215 39.688 336.983 37.48C337.751 35.272 338.327 33.208 338.711 31.288H342.023ZM0.896 145.048C3.296 145.144 6.512 145.24 10.544 145.336C14.672 145.432 18.752 145.48 22.784 145.48C27.392 145.48 31.856 145.432 36.176 145.336C40.496 145.24 43.568 145.192 45.392 145.192C54.32 145.192 61.712 146.2 67.568 148.216C73.52 150.136 77.936 152.968 80.816 156.712C83.792 160.456 85.28 164.968 85.28 170.248C85.28 173.512 84.608 176.824 83.264 180.184C81.92 183.448 79.616 186.52 76.352 189.4C73.184 192.184 68.816 194.44 63.248 196.168C57.68 197.8 50.672 198.616 42.224 198.616H28.4V195.736H40.784C46.448 195.736 50.72 194.68 53.6 192.568C56.576 190.36 58.592 187.48 59.648 183.928C60.8 180.28 61.376 176.248 61.376 171.832C61.376 164.248 60.032 158.392 57.344 154.264C54.656 150.04 50.048 147.928 43.52 147.928C39.776 147.928 37.328 148.744 36.176 150.376C35.12 152.008 34.592 155.32 34.592 160.312V231.736C34.592 235.192 34.832 237.784 35.312 239.512C35.888 241.24 36.944 242.392 38.48 242.968C40.016 243.544 42.32 243.928 45.392 244.12V247C42.8 246.808 39.536 246.712 35.6 246.712C31.664 246.616 27.68 246.568 23.648 246.568C19.04 246.568 14.672 246.616 10.544 246.712C6.512 246.712 3.296 246.808 0.896 247V244.12C3.968 243.928 6.272 243.544 7.808 242.968C9.344 242.392 10.352 241.24 10.832 239.512C11.408 237.784 11.696 235.192 11.696 231.736V160.312C11.696 156.76 11.408 154.168 10.832 152.536C10.352 150.808 9.296 149.656 7.664 149.08C6.128 148.408 3.872 148.024 0.896 147.928V145.048ZM28.112 196.168C32.24 196.264 35.792 196.456 38.768 196.744C41.84 197.032 44.528 197.32 46.832 197.608C49.136 197.8 51.2 197.944 53.024 198.04C61.76 198.808 68.192 200.68 72.32 203.656C76.544 206.632 79.28 211.096 80.528 217.048L83.84 231.88C84.704 235.72 85.616 238.408 86.576 239.944C87.536 241.48 88.928 242.248 90.752 242.248C92 242.152 93.008 241.864 93.776 241.384C94.64 240.808 95.552 239.992 96.512 238.936L98.528 240.664C95.936 243.64 93.152 245.752 90.176 247C87.2 248.344 83.6 249.016 79.376 249.016C74.192 249.016 69.92 247.912 66.56 245.704C63.2 243.496 60.992 239.416 59.936 233.464L57.344 219.064C56.672 215.032 55.856 211.528 54.896 208.552C53.936 205.48 52.592 203.08 50.864 201.352C49.232 199.528 46.928 198.616 43.952 198.616H28.4L28.112 196.168ZM145.095 145.048V147.928C142.023 148.024 139.671 148.408 138.039 149.08C136.503 149.656 135.495 150.808 135.015 152.536C134.535 154.168 134.295 156.76 134.295 160.312V231.736C134.295 235.192 134.535 237.784 135.015 239.512C135.591 241.24 136.647 242.392 138.183 242.968C139.719 243.544 142.023 243.928 145.095 244.12V247C142.503 246.808 139.239 246.712 135.303 246.712C131.367 246.616 127.383 246.568 123.351 246.568C118.647 246.568 114.279 246.616 110.247 246.712C106.311 246.712 103.095 246.808 100.599 247V244.12C103.671 243.928 105.975 243.544 107.511 242.968C109.047 242.392 110.055 241.24 110.535 239.512C111.111 237.784 111.399 235.192 111.399 231.736V160.312C111.399 156.76 111.111 154.168 110.535 152.536C110.055 150.808 108.999 149.656 107.367 149.08C105.831 148.408 103.575 148.024 100.599 147.928V145.048C103.095 145.144 106.311 145.24 110.247 145.336C114.279 145.432 118.647 145.48 123.351 145.48C127.383 145.48 131.367 145.432 135.303 145.336C139.239 145.24 142.503 145.144 145.095 145.048ZM231.78 145.048C231.396 149.272 231.108 153.352 230.916 157.288C230.82 161.224 230.772 164.248 230.772 166.36C230.772 168.28 230.82 170.104 230.916 171.832C231.012 173.56 231.108 175 231.204 176.152H227.892C226.932 169.144 225.444 163.624 223.428 159.592C221.412 155.464 218.772 152.584 215.508 150.952C212.34 149.224 208.596 148.36 204.276 148.36H198.372C195.588 148.36 193.476 148.6 192.036 149.08C190.596 149.56 189.636 150.52 189.156 151.96C188.676 153.4 188.436 155.608 188.436 158.584V233.464C188.436 236.44 188.676 238.648 189.156 240.088C189.636 241.528 190.596 242.488 192.036 242.968C193.476 243.448 195.588 243.688 198.372 243.688H205.428C209.748 243.688 213.54 242.776 216.804 240.952C220.164 239.032 222.996 235.816 225.3 231.304C227.7 226.792 229.524 220.696 230.772 213.016H234.084C233.796 216.088 233.652 220.12 233.652 225.112C233.652 227.32 233.7 230.44 233.796 234.472C233.892 238.504 234.18 242.68 234.66 247C229.764 246.808 224.244 246.712 218.1 246.712C211.956 246.616 206.484 246.568 201.684 246.568C199.284 246.568 196.212 246.568 192.468 246.568C188.724 246.568 184.692 246.616 180.372 246.712C176.052 246.712 171.684 246.76 167.268 246.856C162.852 246.856 158.676 246.904 154.74 247V244.12C157.812 243.928 160.116 243.544 161.652 242.968C163.188 242.392 164.196 241.24 164.676 239.512C165.252 237.784 165.54 235.192 165.54 231.736V160.312C165.54 156.76 165.252 154.168 164.676 152.536C164.196 150.808 163.14 149.656 161.508 149.08C159.972 148.408 157.716 148.024 154.74 147.928V145.048C158.676 145.144 162.852 145.24 167.268 145.336C171.684 145.336 176.052 145.384 180.372 145.48C184.692 145.48 188.724 145.48 192.468 145.48C196.212 145.48 199.284 145.48 201.684 145.48C206.1 145.48 211.092 145.48 216.66 145.48C222.324 145.384 227.364 145.24 231.78 145.048ZM209.316 194.296C209.316 194.296 209.316 194.776 209.316 195.736C209.316 196.696 209.316 197.176 209.316 197.176H184.116C184.116 197.176 184.116 196.696 184.116 195.736C184.116 194.776 184.116 194.296 184.116 194.296H209.316ZM213.492 175.288C213.108 180.76 212.916 184.936 212.916 187.816C213.012 190.696 213.06 193.336 213.06 195.736C213.06 198.136 213.108 200.776 213.204 203.656C213.3 206.536 213.54 210.712 213.924 216.184H210.612C210.132 212.824 209.22 209.704 207.876 206.824C206.628 203.944 204.804 201.64 202.404 199.912C200.004 198.088 196.884 197.176 193.044 197.176V194.296C195.924 194.296 198.372 193.72 200.388 192.568C202.404 191.32 204.036 189.736 205.284 187.816C206.628 185.8 207.684 183.688 208.452 181.48C209.22 179.272 209.796 177.208 210.18 175.288H213.492ZM196.356 111.64C199.236 115.768 203.268 119.896 208.452 124.024C213.732 128.056 219.54 131.416 225.876 134.104L225.156 136.264C218.916 135.112 212.724 133.672 206.58 131.944C200.532 130.216 195.732 128.536 192.18 126.904C189.204 128.536 185.172 130.216 180.084 131.944C175.092 133.672 170.052 135.112 164.964 136.264L164.244 134.104C170.484 131.416 176.196 128.056 181.38 124.024C186.66 119.992 190.788 115.864 193.764 111.64H196.356ZM340.901 145.048V147.928C337.829 148.312 335.525 149.128 333.989 150.376C332.453 151.528 331.397 153.4 330.821 155.992C330.341 158.584 330.101 162.232 330.101 166.936V247.288C328.949 247.192 327.749 247.144 326.501 247.144C325.349 247.144 324.101 247.192 322.757 247.288L260.261 168.088V223.384C260.261 228.664 260.549 232.744 261.125 235.624C261.701 238.408 262.949 240.424 264.869 241.672C266.885 242.824 270.005 243.64 274.229 244.12V247C272.405 246.808 270.005 246.712 267.029 246.712C264.053 246.616 261.269 246.568 258.677 246.568C256.469 246.568 254.213 246.616 251.909 246.712C249.605 246.712 247.685 246.808 246.149 247V244.12C249.221 243.64 251.525 242.824 253.061 241.672C254.597 240.52 255.605 238.648 256.085 236.056C256.661 233.368 256.949 229.72 256.949 225.112V160.312C256.949 156.76 256.661 154.168 256.085 152.536C255.605 150.808 254.549 149.656 252.917 149.08C251.381 148.408 249.125 148.024 246.149 147.928V145.048C247.685 145.144 249.605 145.24 251.909 145.336C254.213 145.432 256.469 145.48 258.677 145.48C260.981 145.48 263.189 145.432 265.301 145.336C267.413 145.24 269.333 145.144 271.061 145.048L326.789 213.736V168.664C326.789 163.384 326.501 159.352 325.925 156.568C325.349 153.688 324.053 151.624 322.037 150.376C320.117 149.128 317.045 148.312 312.821 147.928V145.048C314.645 145.144 317.045 145.24 320.021 145.336C322.997 145.432 325.781 145.48 328.373 145.48C330.677 145.48 332.933 145.432 335.141 145.336C337.445 145.24 339.365 145.144 340.901 145.048ZM53.168 287.032C59.504 287.032 64.688 287.992 68.72 289.912C72.848 291.736 76.496 293.896 79.664 296.392C81.584 297.832 83.024 298.024 83.984 296.968C85.04 295.816 85.76 293.176 86.144 289.048H89.456C89.264 292.792 89.12 297.352 89.024 302.728C88.928 308.008 88.88 315.064 88.88 323.896H85.568C85.088 319.48 84.464 315.736 83.696 312.664C82.928 309.496 81.872 306.712 80.528 304.312C79.184 301.912 77.264 299.752 74.768 297.832C72.368 295.432 69.584 293.656 66.416 292.504C63.248 291.352 59.936 290.776 56.48 290.776C51.296 290.776 46.88 292.168 43.232 294.952C39.584 297.64 36.608 301.336 34.304 306.04C32.096 310.744 30.464 316.072 29.408 322.024C28.352 327.88 27.824 333.976 27.824 340.312C27.824 346.744 28.352 352.936 29.408 358.888C30.56 364.744 32.288 369.976 34.592 374.584C36.992 379.192 40.064 382.84 43.808 385.528C47.552 388.216 51.968 389.56 57.056 389.56C60.224 389.56 63.392 388.984 66.56 387.832C69.824 386.584 72.608 384.808 74.912 382.504C78.656 379.624 81.2 376.072 82.544 371.848C83.888 367.528 84.896 361.816 85.568 354.712H88.88C88.88 363.832 88.928 371.224 89.024 376.888C89.12 382.456 89.264 387.16 89.456 391H86.144C85.76 386.872 85.088 384.28 84.128 383.224C83.264 382.168 81.776 382.312 79.664 383.656C76.112 386.152 72.32 388.36 68.288 390.28C64.352 392.104 59.264 393.016 53.024 393.016C42.848 393.016 33.92 390.952 26.24 386.824C18.656 382.696 12.752 376.744 8.528 368.968C4.304 361.192 2.192 351.832 2.192 340.888C2.192 330.136 4.352 320.728 8.672 312.664C13.088 304.6 19.088 298.312 26.672 293.8C34.352 289.288 43.184 287.032 53.168 287.032ZM146.923 289.048V291.928C143.851 292.024 141.499 292.408 139.867 293.08C138.331 293.656 137.323 294.808 136.843 296.536C136.363 298.168 136.123 300.76 136.123 304.312V375.736C136.123 379.192 136.363 381.784 136.843 383.512C137.419 385.24 138.475 386.392 140.011 386.968C141.547 387.544 143.851 387.928 146.923 388.12V391C144.331 390.808 141.067 390.712 137.131 390.712C133.195 390.616 129.211 390.568 125.179 390.568C120.475 390.568 116.107 390.616 112.075 390.712C108.139 390.712 104.923 390.808 102.427 391V388.12C105.499 387.928 107.803 387.544 109.339 386.968C110.875 386.392 111.883 385.24 112.363 383.512C112.939 381.784 113.227 379.192 113.227 375.736V304.312C113.227 300.76 112.939 298.168 112.363 296.536C111.883 294.808 110.827 293.656 109.195 293.08C107.659 292.408 105.403 292.024 102.427 291.928V289.048C104.923 289.144 108.139 289.24 112.075 289.336C116.107 289.432 120.475 289.48 125.179 289.48C129.211 289.48 133.195 289.432 137.131 289.336C141.067 289.24 144.331 289.144 146.923 289.048ZM204.664 288.76L239.656 378.904C241 382.36 242.488 384.76 244.12 386.104C245.848 387.352 247.384 388.024 248.728 388.12V391C245.848 390.808 242.44 390.712 238.504 390.712C234.664 390.616 230.776 390.568 226.84 390.568C222.424 390.568 218.248 390.616 214.312 390.712C210.376 390.712 207.256 390.808 204.952 391V388.12C209.848 387.928 212.92 387.112 214.168 385.672C215.512 384.136 215.224 380.92 213.304 376.024L188.824 309.064L191.416 305.32L169.528 362.344C167.416 367.624 166.12 371.944 165.64 375.304C165.256 378.664 165.496 381.256 166.36 383.08C167.32 384.904 168.808 386.2 170.824 386.968C172.936 387.64 175.432 388.024 178.312 388.12V391C175.144 390.808 172.12 390.712 169.24 390.712C166.36 390.616 163.432 390.568 160.456 390.568C158.344 390.568 156.328 390.616 154.408 390.712C152.584 390.712 150.952 390.808 149.512 391V388.12C151.528 387.736 153.592 386.44 155.704 384.232C157.816 382.024 159.88 378.28 161.896 373L194.728 288.76C196.264 288.856 197.896 288.904 199.624 288.904C201.448 288.904 203.128 288.856 204.664 288.76ZM214.744 349.528V352.408H171.832L173.272 349.528H214.744Z" fill="#E0E0E0"/>
</svg>
