<svg width="971" height="139" viewBox="0 0 971 139" fill="none" xmlns="http://www.w3.org/2000/svg">
<path d="M77.936 34.048C77.552 38.272 77.264 42.352 77.072 46.288C76.976 50.224 76.928 53.248 76.928 55.36C76.928 57.28 76.976 59.104 77.072 60.832C77.168 62.56 77.264 64 77.36 65.152H74.048C73.088 58.144 71.6 52.624 69.584 48.592C67.568 44.464 64.928 41.584 61.664 39.952C58.496 38.224 54.752 37.36 50.432 37.36H44.528C41.744 37.36 39.632 37.6 38.192 38.08C36.752 38.56 35.792 39.52 35.312 40.96C34.832 42.4 34.592 44.608 34.592 47.584V122.464C34.592 125.44 34.832 127.648 35.312 129.088C35.792 130.528 36.752 131.488 38.192 131.968C39.632 132.448 41.744 132.688 44.528 132.688H51.584C55.904 132.688 59.696 131.776 62.96 129.952C66.32 128.032 69.152 124.816 71.456 120.304C73.856 115.792 75.68 109.696 76.928 102.016H80.24C79.952 105.088 79.808 109.12 79.808 114.112C79.808 116.32 79.856 119.44 79.952 123.472C80.048 127.504 80.336 131.68 80.816 136C75.92 135.808 70.4 135.712 64.256 135.712C58.112 135.616 52.64 135.568 47.84 135.568C45.44 135.568 42.368 135.568 38.624 135.568C34.88 135.568 30.848 135.616 26.528 135.712C22.208 135.712 17.84 135.76 13.424 135.856C9.008 135.856 4.832 135.904 0.896 136V133.12C3.968 132.928 6.272 132.544 7.808 131.968C9.344 131.392 10.352 130.24 10.832 128.512C11.408 126.784 11.696 124.192 11.696 120.736V49.312C11.696 45.76 11.408 43.168 10.832 41.536C10.352 39.808 9.296 38.656 7.664 38.08C6.128 37.408 3.872 37.024 0.896 36.928V34.048C4.832 34.144 9.008 34.24 13.424 34.336C17.84 34.336 22.208 34.384 26.528 34.48C30.848 34.48 34.88 34.48 38.624 34.48C42.368 34.48 45.44 34.48 47.84 34.48C52.256 34.48 57.248 34.48 62.816 34.48C68.48 34.384 73.52 34.24 77.936 34.048ZM55.472 83.296C55.472 83.296 55.472 83.776 55.472 84.736C55.472 85.696 55.472 86.176 55.472 86.176H30.272C30.272 86.176 30.272 85.696 30.272 84.736C30.272 83.776 30.272 83.296 30.272 83.296H55.472ZM59.648 64.288C59.264 69.76 59.072 73.936 59.072 76.816C59.168 79.696 59.216 82.336 59.216 84.736C59.216 87.136 59.264 89.776 59.36 92.656C59.456 95.536 59.696 99.712 60.08 105.184H56.768C56.288 101.824 55.376 98.704 54.032 95.824C52.784 92.944 50.96 90.64 48.56 88.912C46.16 87.088 43.04 86.176 39.2 86.176V83.296C42.08 83.296 44.528 82.72 46.544 81.568C48.56 80.32 50.192 78.736 51.44 76.816C52.784 74.8 53.84 72.688 54.608 70.48C55.376 68.272 55.952 66.208 56.336 64.288H59.648ZM130.322 33.904V36.928C126.002 36.928 123.218 37.36 121.97 38.224C120.818 38.992 120.914 40.384 122.258 42.4L179.282 125.776C181.202 128.464 182.738 130.288 183.89 131.248C185.042 132.208 186.578 132.784 188.498 132.976V136C186.578 135.904 183.794 135.808 180.146 135.712C176.498 135.52 172.706 135.424 168.77 135.424C164.45 135.424 160.034 135.52 155.522 135.712C151.106 135.808 147.794 135.904 145.586 136V132.976C150.002 132.976 152.834 132.688 154.082 132.112C155.426 131.44 155.426 130.096 154.082 128.08L96.9136 44.128C95.0896 41.344 93.6016 39.472 92.4496 38.512C91.2976 37.552 89.7136 37.024 87.6976 36.928V33.904C89.7136 34 92.6416 34.144 96.4816 34.336C100.418 34.432 104.354 34.48 108.29 34.48C112.61 34.48 116.738 34.432 120.674 34.336C124.706 34.144 127.922 34 130.322 33.904ZM131.618 84.736C131.618 84.736 131.714 85.072 131.906 85.744C132.098 86.32 132.29 86.944 132.482 87.616C132.674 88.192 132.77 88.48 132.77 88.48L118.37 108.208C114.53 113.392 112.37 117.808 111.89 121.456C111.41 125.008 112.226 127.792 114.338 129.808C116.546 131.728 119.762 132.832 123.986 133.12V136C122.642 135.904 120.914 135.856 118.802 135.856C116.786 135.76 114.626 135.712 112.322 135.712C110.114 135.616 108.002 135.568 105.986 135.568C104.066 135.568 102.482 135.568 101.234 135.568C98.5456 135.568 96.0496 135.616 93.7456 135.712C91.4416 135.712 89.5216 135.808 87.9856 136V133.12C91.3456 131.968 94.7536 129.952 98.2096 127.072C101.666 124.096 105.218 120.256 108.866 115.552L131.618 84.736ZM182.018 34.048V36.928C178.85 37.792 175.682 39.616 172.514 42.4C169.442 45.184 166.562 48.4 163.874 52.048L140.546 83.152C140.546 83.152 140.354 82.528 139.97 81.28C139.682 80.032 139.538 79.408 139.538 79.408L154.37 59.392C158.018 54.784 160.178 50.848 160.85 47.584C161.618 44.32 161.09 41.776 159.266 39.952C157.442 38.128 154.562 37.12 150.626 36.928V34.048C152.45 34.144 154.466 34.24 156.674 34.336C158.882 34.336 161.042 34.384 163.154 34.48C165.362 34.48 167.234 34.48 168.77 34.48C171.554 34.48 174.098 34.432 176.402 34.336C178.706 34.24 180.578 34.144 182.018 34.048ZM191.724 34.048C194.124 34.144 197.34 34.24 201.372 34.336C205.5 34.432 209.58 34.48 213.612 34.48C218.22 34.48 222.684 34.432 227.004 34.336C231.324 34.24 234.396 34.192 236.22 34.192C249.564 34.192 259.548 36.832 266.172 42.112C272.796 47.392 276.108 54.208 276.108 62.56C276.108 66.016 275.436 69.664 274.092 73.504C272.748 77.248 270.444 80.752 267.18 84.016C264.012 87.184 259.644 89.776 254.076 91.792C248.508 93.808 241.5 94.816 233.052 94.816H218.364V91.936H231.612C237.276 91.936 241.548 90.64 244.428 88.048C247.404 85.456 249.42 82.048 250.476 77.824C251.628 73.6 252.204 69.04 252.204 64.144C252.204 55.024 250.86 48.208 248.172 43.696C245.484 39.184 240.876 36.928 234.348 36.928C230.604 36.928 228.156 37.744 227.004 39.376C225.948 41.008 225.42 44.32 225.42 49.312V119.872C225.42 123.616 225.804 126.4 226.572 128.224C227.34 130.048 228.828 131.248 231.036 131.824C233.244 132.4 236.508 132.736 240.828 132.832V136C237.852 135.904 234.012 135.808 229.308 135.712C224.604 135.616 219.66 135.568 214.476 135.568C210.348 135.568 206.316 135.616 202.38 135.712C198.444 135.808 194.892 135.904 191.724 136V133.12C194.796 132.928 197.1 132.544 198.636 131.968C200.172 131.392 201.18 130.24 201.66 128.512C202.236 126.784 202.524 124.192 202.524 120.736V49.312C202.524 45.76 202.236 43.168 201.66 41.536C201.18 39.808 200.124 38.656 198.492 38.08C196.956 37.408 194.7 37.024 191.724 36.928V34.048ZM360.311 34.048C359.927 38.272 359.639 42.352 359.447 46.288C359.351 50.224 359.303 53.248 359.303 55.36C359.303 57.28 359.351 59.104 359.447 60.832C359.543 62.56 359.639 64 359.735 65.152H356.423C355.463 58.144 353.975 52.624 351.959 48.592C349.943 44.464 347.303 41.584 344.039 39.952C340.871 38.224 337.127 37.36 332.807 37.36H326.903C324.119 37.36 322.007 37.6 320.567 38.08C319.127 38.56 318.167 39.52 317.687 40.96C317.207 42.4 316.967 44.608 316.967 47.584V122.464C316.967 125.44 317.207 127.648 317.687 129.088C318.167 130.528 319.127 131.488 320.567 131.968C322.007 132.448 324.119 132.688 326.903 132.688H333.959C338.279 132.688 342.071 131.776 345.335 129.952C348.695 128.032 351.527 124.816 353.831 120.304C356.231 115.792 358.055 109.696 359.303 102.016H362.615C362.327 105.088 362.183 109.12 362.183 114.112C362.183 116.32 362.231 119.44 362.327 123.472C362.423 127.504 362.711 131.68 363.191 136C358.295 135.808 352.775 135.712 346.631 135.712C340.487 135.616 335.015 135.568 330.215 135.568C327.815 135.568 324.743 135.568 320.999 135.568C317.255 135.568 313.223 135.616 308.903 135.712C304.583 135.712 300.215 135.76 295.799 135.856C291.383 135.856 287.207 135.904 283.271 136V133.12C286.343 132.928 288.647 132.544 290.183 131.968C291.719 131.392 292.727 130.24 293.207 128.512C293.783 126.784 294.071 124.192 294.071 120.736V49.312C294.071 45.76 293.783 43.168 293.207 41.536C292.727 39.808 291.671 38.656 290.039 38.08C288.503 37.408 286.247 37.024 283.271 36.928V34.048C287.207 34.144 291.383 34.24 295.799 34.336C300.215 34.336 304.583 34.384 308.903 34.48C313.223 34.48 317.255 34.48 320.999 34.48C324.743 34.48 327.815 34.48 330.215 34.48C334.631 34.48 339.623 34.48 345.191 34.48C350.855 34.384 355.895 34.24 360.311 34.048ZM337.847 83.296C337.847 83.296 337.847 83.776 337.847 84.736C337.847 85.696 337.847 86.176 337.847 86.176H312.647C312.647 86.176 312.647 85.696 312.647 84.736C312.647 83.776 312.647 83.296 312.647 83.296H337.847ZM342.023 64.288C341.639 69.76 341.447 73.936 341.447 76.816C341.543 79.696 341.591 82.336 341.591 84.736C341.591 87.136 341.639 89.776 341.735 92.656C341.831 95.536 342.071 99.712 342.455 105.184H339.143C338.663 101.824 337.751 98.704 336.407 95.824C335.159 92.944 333.335 90.64 330.935 88.912C328.535 87.088 325.415 86.176 321.575 86.176V83.296C324.455 83.296 326.903 82.72 328.919 81.568C330.935 80.32 332.567 78.736 333.815 76.816C335.159 74.8 336.215 72.688 336.983 70.48C337.751 68.272 338.327 66.208 338.711 64.288H342.023ZM374.537 34.048C376.937 34.144 380.153 34.24 384.185 34.336C388.313 34.432 392.393 34.48 396.425 34.48C401.033 34.48 405.497 34.432 409.817 34.336C414.137 34.24 417.209 34.192 419.033 34.192C427.961 34.192 435.353 35.2 441.209 37.216C447.161 39.136 451.577 41.968 454.457 45.712C457.433 49.456 458.921 53.968 458.921 59.248C458.921 62.512 458.249 65.824 456.905 69.184C455.561 72.448 453.257 75.52 449.993 78.4C446.825 81.184 442.457 83.44 436.889 85.168C431.321 86.8 424.313 87.616 415.865 87.616H402.041V84.736H414.425C420.089 84.736 424.361 83.68 427.241 81.568C430.217 79.36 432.233 76.48 433.289 72.928C434.441 69.28 435.017 65.248 435.017 60.832C435.017 53.248 433.673 47.392 430.985 43.264C428.297 39.04 423.689 36.928 417.161 36.928C413.417 36.928 410.969 37.744 409.817 39.376C408.761 41.008 408.233 44.32 408.233 49.312V120.736C408.233 124.192 408.473 126.784 408.953 128.512C409.529 130.24 410.585 131.392 412.121 131.968C413.657 132.544 415.961 132.928 419.033 133.12V136C416.441 135.808 413.177 135.712 409.241 135.712C405.305 135.616 401.321 135.568 397.289 135.568C392.681 135.568 388.313 135.616 384.185 135.712C380.153 135.712 376.937 135.808 374.537 136V133.12C377.609 132.928 379.913 132.544 381.449 131.968C382.985 131.392 383.993 130.24 384.473 128.512C385.049 126.784 385.337 124.192 385.337 120.736V49.312C385.337 45.76 385.049 43.168 384.473 41.536C383.993 39.808 382.937 38.656 381.305 38.08C379.769 37.408 377.513 37.024 374.537 36.928V34.048ZM401.753 85.168C405.881 85.264 409.433 85.456 412.409 85.744C415.481 86.032 418.169 86.32 420.473 86.608C422.777 86.8 424.841 86.944 426.665 87.04C435.401 87.808 441.833 89.68 445.961 92.656C450.185 95.632 452.921 100.096 454.169 106.048L457.481 120.88C458.345 124.72 459.257 127.408 460.217 128.944C461.177 130.48 462.569 131.248 464.393 131.248C465.641 131.152 466.649 130.864 467.417 130.384C468.281 129.808 469.193 128.992 470.153 127.936L472.169 129.664C469.577 132.64 466.793 134.752 463.817 136C460.841 137.344 457.241 138.016 453.017 138.016C447.833 138.016 443.561 136.912 440.201 134.704C436.841 132.496 434.633 128.416 433.577 122.464L430.985 108.064C430.313 104.032 429.497 100.528 428.537 97.552C427.577 94.48 426.233 92.08 424.505 90.352C422.873 88.528 420.569 87.616 417.593 87.616H402.041L401.753 85.168ZM518.736 34.048V36.928C515.664 37.024 513.312 37.408 511.68 38.08C510.144 38.656 509.136 39.808 508.656 41.536C508.176 43.168 507.936 45.76 507.936 49.312V120.736C507.936 124.192 508.176 126.784 508.656 128.512C509.232 130.24 510.288 131.392 511.824 131.968C513.36 132.544 515.664 132.928 518.736 133.12V136C516.144 135.808 512.88 135.712 508.944 135.712C505.008 135.616 501.024 135.568 496.992 135.568C492.288 135.568 487.92 135.616 483.888 135.712C479.952 135.712 476.736 135.808 474.24 136V133.12C477.312 132.928 479.616 132.544 481.152 131.968C482.688 131.392 483.696 130.24 484.176 128.512C484.752 126.784 485.04 124.192 485.04 120.736V49.312C485.04 45.76 484.752 43.168 484.176 41.536C483.696 39.808 482.64 38.656 481.008 38.08C479.472 37.408 477.216 37.024 474.24 36.928V34.048C476.736 34.144 479.952 34.24 483.888 34.336C487.92 34.432 492.288 34.48 496.992 34.48C501.024 34.48 505.008 34.432 508.944 34.336C512.88 34.24 516.144 34.144 518.736 34.048ZM605.42 34.048C605.036 38.272 604.748 42.352 604.556 46.288C604.46 50.224 604.412 53.248 604.412 55.36C604.412 57.28 604.46 59.104 604.556 60.832C604.652 62.56 604.748 64 604.844 65.152H601.532C600.572 58.144 599.084 52.624 597.068 48.592C595.052 44.464 592.412 41.584 589.148 39.952C585.98 38.224 582.236 37.36 577.916 37.36H572.012C569.228 37.36 567.116 37.6 565.676 38.08C564.236 38.56 563.276 39.52 562.796 40.96C562.316 42.4 562.076 44.608 562.076 47.584V122.464C562.076 125.44 562.316 127.648 562.796 129.088C563.276 130.528 564.236 131.488 565.676 131.968C567.116 132.448 569.228 132.688 572.012 132.688H579.068C583.388 132.688 587.18 131.776 590.444 129.952C593.804 128.032 596.636 124.816 598.94 120.304C601.34 115.792 603.164 109.696 604.412 102.016H607.724C607.436 105.088 607.292 109.12 607.292 114.112C607.292 116.32 607.34 119.44 607.436 123.472C607.532 127.504 607.82 131.68 608.3 136C603.404 135.808 597.884 135.712 591.74 135.712C585.596 135.616 580.124 135.568 575.324 135.568C572.924 135.568 569.852 135.568 566.108 135.568C562.364 135.568 558.332 135.616 554.012 135.712C549.692 135.712 545.324 135.76 540.908 135.856C536.492 135.856 532.316 135.904 528.38 136V133.12C531.452 132.928 533.756 132.544 535.292 131.968C536.828 131.392 537.836 130.24 538.316 128.512C538.892 126.784 539.18 124.192 539.18 120.736V49.312C539.18 45.76 538.892 43.168 538.316 41.536C537.836 39.808 536.78 38.656 535.148 38.08C533.612 37.408 531.356 37.024 528.38 36.928V34.048C532.316 34.144 536.492 34.24 540.908 34.336C545.324 34.336 549.692 34.384 554.012 34.48C558.332 34.48 562.364 34.48 566.108 34.48C569.852 34.48 572.924 34.48 575.324 34.48C579.74 34.48 584.732 34.48 590.3 34.48C595.964 34.384 601.004 34.24 605.42 34.048ZM582.956 83.296C582.956 83.296 582.956 83.776 582.956 84.736C582.956 85.696 582.956 86.176 582.956 86.176H557.756C557.756 86.176 557.756 85.696 557.756 84.736C557.756 83.776 557.756 83.296 557.756 83.296H582.956ZM587.132 64.288C586.748 69.76 586.556 73.936 586.556 76.816C586.652 79.696 586.7 82.336 586.7 84.736C586.7 87.136 586.748 89.776 586.844 92.656C586.94 95.536 587.18 99.712 587.564 105.184H584.252C583.772 101.824 582.86 98.704 581.516 95.824C580.268 92.944 578.444 90.64 576.044 88.912C573.644 87.088 570.524 86.176 566.684 86.176V83.296C569.564 83.296 572.012 82.72 574.028 81.568C576.044 80.32 577.676 78.736 578.924 76.816C580.268 74.8 581.324 72.688 582.092 70.48C582.86 68.272 583.436 66.208 583.82 64.288H587.132ZM569.996 0.639992C572.876 4.768 576.908 8.896 582.092 13.024C587.372 17.056 593.18 20.416 599.516 23.104L598.796 25.264C592.556 24.112 586.364 22.672 580.22 20.944C574.172 19.216 569.372 17.536 565.82 15.904C562.844 17.536 558.812 19.216 553.724 20.944C548.732 22.672 543.692 24.112 538.604 25.264L537.884 23.104C544.124 20.416 549.836 17.056 555.02 13.024C560.3 8.992 564.428 4.86399 567.404 0.639992H569.996ZM714.542 34.048V36.928C711.47 37.312 709.166 38.128 707.63 39.376C706.094 40.528 705.038 42.4 704.462 44.992C703.982 47.584 703.742 51.232 703.742 55.936V136.288C702.59 136.192 701.39 136.144 700.142 136.144C698.99 136.144 697.742 136.192 696.398 136.288L633.902 57.088V112.384C633.902 117.664 634.19 121.744 634.766 124.624C635.342 127.408 636.59 129.424 638.51 130.672C640.526 131.824 643.646 132.64 647.87 133.12V136C646.046 135.808 643.646 135.712 640.67 135.712C637.694 135.616 634.91 135.568 632.318 135.568C630.11 135.568 627.854 135.616 625.55 135.712C623.246 135.712 621.326 135.808 619.79 136V133.12C622.862 132.64 625.166 131.824 626.702 130.672C628.238 129.52 629.246 127.648 629.726 125.056C630.302 122.368 630.59 118.72 630.59 114.112V49.312C630.59 45.76 630.302 43.168 629.726 41.536C629.246 39.808 628.19 38.656 626.558 38.08C625.022 37.408 622.766 37.024 619.79 36.928V34.048C621.326 34.144 623.246 34.24 625.55 34.336C627.854 34.432 630.11 34.48 632.318 34.48C634.622 34.48 636.83 34.432 638.942 34.336C641.054 34.24 642.974 34.144 644.702 34.048L700.43 102.736V57.664C700.43 52.384 700.142 48.352 699.566 45.568C698.99 42.688 697.694 40.624 695.678 39.376C693.758 38.128 690.686 37.312 686.462 36.928V34.048C688.286 34.144 690.686 34.24 693.662 34.336C696.638 34.432 699.422 34.48 702.014 34.48C704.318 34.48 706.574 34.432 708.782 34.336C711.086 34.24 713.006 34.144 714.542 34.048ZM774.856 32.032C781.192 32.032 786.376 32.992 790.407 34.912C794.536 36.736 798.184 38.896 801.352 41.392C803.272 42.832 804.712 43.024 805.672 41.968C806.728 40.816 807.448 38.176 807.832 34.048H811.144C810.952 37.792 810.808 42.352 810.712 47.728C810.616 53.008 810.568 60.064 810.568 68.896H807.256C806.776 64.48 806.152 60.736 805.384 57.664C804.616 54.496 803.56 51.712 802.216 49.312C800.872 46.912 798.952 44.752 796.456 42.832C794.056 40.432 791.272 38.656 788.104 37.504C784.936 36.352 781.624 35.776 778.168 35.776C772.984 35.776 768.568 37.168 764.92 39.952C761.272 42.64 758.296 46.336 755.992 51.04C753.784 55.744 752.152 61.072 751.096 67.024C750.04 72.88 749.512 78.976 749.512 85.312C749.512 91.744 750.04 97.936 751.096 103.888C752.248 109.744 753.976 114.976 756.28 119.584C758.68 124.192 761.752 127.84 765.496 130.528C769.24 133.216 773.656 134.56 778.744 134.56C781.912 134.56 785.08 133.984 788.248 132.832C791.512 131.584 794.296 129.808 796.6 127.504C800.344 124.624 802.888 121.072 804.232 116.848C805.576 112.528 806.584 106.816 807.256 99.712H810.568C810.568 108.832 810.616 116.224 810.712 121.888C810.808 127.456 810.952 132.16 811.144 136H807.832C807.448 131.872 806.776 129.28 805.816 128.224C804.952 127.168 803.464 127.312 801.352 128.656C797.8 131.152 794.008 133.36 789.976 135.28C786.04 137.104 780.952 138.016 774.712 138.016C764.536 138.016 755.608 135.952 747.928 131.824C740.344 127.696 734.44 121.744 730.216 113.968C725.992 106.192 723.88 96.832 723.88 85.888C723.88 75.136 726.04 65.728 730.36 57.664C734.776 49.6 740.776 43.312 748.36 38.8C756.04 34.288 764.872 32.032 774.856 32.032ZM868.611 34.048V36.928C865.539 37.024 863.187 37.408 861.555 38.08C860.019 38.656 859.011 39.808 858.531 41.536C858.051 43.168 857.811 45.76 857.811 49.312V120.736C857.811 124.192 858.051 126.784 858.531 128.512C859.107 130.24 860.163 131.392 861.699 131.968C863.235 132.544 865.539 132.928 868.611 133.12V136C866.019 135.808 862.755 135.712 858.819 135.712C854.883 135.616 850.899 135.568 846.867 135.568C842.163 135.568 837.795 135.616 833.763 135.712C829.827 135.712 826.611 135.808 824.115 136V133.12C827.187 132.928 829.491 132.544 831.027 131.968C832.563 131.392 833.571 130.24 834.051 128.512C834.627 126.784 834.915 124.192 834.915 120.736V49.312C834.915 45.76 834.627 43.168 834.051 41.536C833.571 39.808 832.515 38.656 830.883 38.08C829.347 37.408 827.091 37.024 824.115 36.928V34.048C826.611 34.144 829.827 34.24 833.763 34.336C837.795 34.432 842.163 34.48 846.867 34.48C850.899 34.48 854.883 34.432 858.819 34.336C862.755 34.24 866.019 34.144 868.611 34.048ZM926.351 33.76L961.343 123.904C962.687 127.36 964.175 129.76 965.807 131.104C967.535 132.352 969.071 133.024 970.415 133.12V136C967.535 135.808 964.127 135.712 960.191 135.712C956.351 135.616 952.463 135.568 948.527 135.568C944.111 135.568 939.935 135.616 935.999 135.712C932.063 135.712 928.943 135.808 926.639 136V133.12C931.535 132.928 934.607 132.112 935.855 130.672C937.199 129.136 936.911 125.92 934.991 121.024L910.511 54.064L913.103 50.32L891.215 107.344C889.103 112.624 887.807 116.944 887.327 120.304C886.943 123.664 887.183 126.256 888.047 128.08C889.007 129.904 890.495 131.2 892.511 131.968C894.623 132.64 897.119 133.024 899.999 133.12V136C896.831 135.808 893.807 135.712 890.927 135.712C888.047 135.616 885.119 135.568 882.143 135.568C880.031 135.568 878.015 135.616 876.095 135.712C874.271 135.712 872.639 135.808 871.199 136V133.12C873.215 132.736 875.279 131.44 877.391 129.232C879.503 127.024 881.567 123.28 883.583 118L916.415 33.76C917.951 33.856 919.583 33.904 921.311 33.904C923.135 33.904 924.815 33.856 926.351 33.76ZM936.431 94.528V97.408H893.519L894.959 94.528H936.431Z" fill="#E0E0E0"/>
</svg>
