<svg width="213" height="183" viewBox="0 0 213 183" fill="none" xmlns="http://www.w3.org/2000/svg">
<rect width="213" height="13" fill="black"/>
<rect width="213" height="13" fill="black"/>
<path d="M0 0H11V182H0V0Z" fill="black"/>
<path d="M0 0H11V182H0V0Z" fill="black"/>
<path d="M0 181.966L0.110574 169L115.916 169.988L115.805 182.954L0 181.966Z" fill="black"/>
<path d="M0 181.966L0.110574 169L115.916 169.988L115.805 182.954L0 181.966Z" fill="black"/>
<path d="M201 5H213V71H201V5Z" fill="black"/>
<path d="M201 5H213V71H201V5Z" fill="black"/>
<path d="M42.0909 141V47.9091H61.7727V124.773H101.682V141H42.0909Z" fill="black"/>
<path d="M99.0909 141V47.9091H161.818V64.1364H118.773V86.3182H158.591V102.545H118.773V124.773H162V141H99.0909Z" fill="black"/>
</svg>
